HIERARCHY
ROOT Hips
{
	OFFSET 0.000000 0.000000 0.000000
	CHANNELS 6 Xposition Yposition Zposition Xrotation Yrotation Zrotation
	JOINT LeftUpLeg_virtual
	{
		OFFSET 0.000000 0.000000 0.000000
		CHANNELS 3 Xrotation Yrotation Zrotation
		JOINT LeftUpLeg
		{
			OFFSET 11.394100 -6.187798 -0.413800
			CHANNELS 3 Xrotation Yrotation Zrotation
			JOINT LeftLeg
			{
				OFFSET 0.430247 -32.302673 3.732800
				CHANNELS 3 Xrotation Yrotation Zrotation
				JOINT LeftFoot
				{
					OFFSET -0.430247 -48.264931 -6.423300
					CHANNELS 3 Xrotation Yrotation Zrotation
					JOINT LeftToeBase
					{
						OFFSET 4.230900 -16.068199 23.438400
						CHANNELS 3 Xrotation Yrotation Zrotation
						JOINT LeftToe_End
						{
							OFFSET 4.510700 0.695400 19.974600
							CHANNELS 3 Xrotation Yrotation Zrotation
							End Site
							{
								OFFSET 0 0 0
							}
						}
					}
				}
			}
		}
	}
	JOINT RightUpLeg_virtual
	{
		OFFSET 0.000000 0.000000 0.000000
		CHANNELS 3 Xrotation Yrotation Zrotation
		JOINT RightUpLeg
		{
			OFFSET -11.333700 -6.187798 -0.413800
			CHANNELS 3 Xrotation Yrotation Zrotation
			JOINT RightLeg
			{
				OFFSET -0.430392 -32.302628 3.733000
				CHANNELS 3 Xrotation Yrotation Zrotation
				JOINT RightFoot
				{
					OFFSET 0.430392 -48.264973 -6.423500
					CHANNELS 3 Xrotation Yrotation Zrotation
					JOINT RightToeBase
					{
						OFFSET -4.230900 -16.068199 23.438400
						CHANNELS 3 Xrotation Yrotation Zrotation
						JOINT RightToe_End
						{
							OFFSET -4.510700 0.695400 19.974600
							CHANNELS 3 Xrotation Yrotation Zrotation
							End Site
							{
								OFFSET 0 0 0
							}
						}
					}
				}
			}
		}
	}
	JOINT Spine_virtual
	{
		OFFSET 0.000000 0.000000 0.000000
		CHANNELS 3 Xrotation Yrotation Zrotation
		JOINT Spine
		{
			OFFSET -0.002400 12.777504 0.315300
			CHANNELS 3 Xrotation Yrotation Zrotation
			JOINT Spine1
			{
				OFFSET -0.002067 5.816869 0.032633
				CHANNELS 3 Xrotation Yrotation Zrotation
				JOINT Spine1_split
				{
					OFFSET -0.002067 5.816869 0.032633
					CHANNELS 3 Xrotation Yrotation Zrotation
					JOINT Spine2
					{
						OFFSET -0.002067 5.816869 0.032633
						CHANNELS 3 Xrotation Yrotation Zrotation
						JOINT Neck_virtual
						{
							OFFSET 0.000000 0.000000 0.000000
							CHANNELS 3 Xrotation Yrotation Zrotation
							JOINT Neck
							{
								OFFSET -0.003700 21.199493 -0.826900
								CHANNELS 3 Xrotation Yrotation Zrotation
								JOINT Head
								{
									OFFSET 0.000000 20.442200 4.834800
									CHANNELS 3 Xrotation Yrotation Zrotation
									JOINT HeadTop_End
									{
										OFFSET 0.000000 34.668396 4.968400
										CHANNELS 3 Xrotation Yrotation Zrotation
										End Site
										{
											OFFSET 0 0 0
										}
									}
								}
							}
						}
						JOINT LeftShoulder_virtual
						{
							OFFSET 0.000000 0.000000 0.000000
							CHANNELS 3 Xrotation Yrotation Zrotation
							JOINT LeftShoulder
							{
								OFFSET 3.288150 8.794197 -1.372250
								CHANNELS 3 Xrotation Yrotation Zrotation
								JOINT LeftShoulder_split
								{
									OFFSET 3.288150 8.794197 -1.372250
									CHANNELS 3 Xrotation Yrotation Zrotation
									JOINT LeftArm
									{
										OFFSET 11.953299 -2.279007 -0.146200
										CHANNELS 3 Xrotation Yrotation Zrotation
										JOINT LeftForeArm
										{
											OFFSET 18.448900 0.000000 0.000000
											CHANNELS 3 Xrotation Yrotation Zrotation
											JOINT LeftHand
											{
												OFFSET 29.527798 0.000000 0.000000
												CHANNELS 3 Xrotation Yrotation Zrotation
												End Site
												{
													OFFSET 0 0 0
												}
											}
										}
									}
								}
							}
						}
						JOINT RightShoulder_virtual
						{
							OFFSET 0.000000 0.000000 0.000000
							CHANNELS 3 Xrotation Yrotation Zrotation
							JOINT RightShoulder
							{
								OFFSET -3.249400 8.794197 -1.372250
								CHANNELS 3 Xrotation Yrotation Zrotation
								JOINT RightShoulder_split
								{
									OFFSET -3.249400 8.794197 -1.372250
									CHANNELS 3 Xrotation Yrotation Zrotation
									JOINT RightArm
									{
										OFFSET -11.953299 -2.279007 -0.146200
										CHANNELS 3 Xrotation Yrotation Zrotation
										JOINT RightForeArm
										{
											OFFSET -18.448900 0.000000 0.000000
											CHANNELS 3 Xrotation Yrotation Zrotation
											JOINT RightHand
											{
												OFFSET -29.527802 0.000000 0.000000
												CHANNELS 3 Xrotation Yrotation Zrotation
												End Site
												{
													OFFSET 0 0 0
												}
											}
										}
									}
								}
							}
						}
					}
				}
			}
		}
	}
}
MOTION
Frames: 5
Frame Time: 0.03333333
-4.716995 48.948421 -1.705177 0.000000 0.000000 0.000000 -176.628774 39.219342 171.040067 -95.653528 -22.222490 15.485422 112.965639 -8.797121 3.564905 -17.340604 22.449925 -17.487716 2.194421 -7.419308 3.999773 0.000000 0.000000 0.000000 -176.171370 41.896145 169.218169 -60.025854 19.822775 -7.933741 101.586264 1.391999 -3.007509 -22.628932 -23.239748 38.917875 -0.632271 5.787084 -36.774626 0.000000 0.000000 0.000000 -178.755954 39.869522 173.977213 7.819773 1.298757 -5.295640 6.260650 0.330218 -3.469226 0.096399 0.156014 -0.003771 0.000000 0.000000 0.000000 9.398295 3.593328 -2.732818 -11.302313 12.487159 12.879870 -13.471448 28.448809 -18.351415 0.000000 0.000000 0.000000 6.296472 2.271058 -3.985822 1.367875 -12.754684 -7.172734 -1.610931 -4.567791 -3.359407 -8.410937 -10.444554 -29.813294 58.363181 -36.585673 18.259479 0.000000 0.000000 0.000000 8.329623 2.007903 -2.809120 -4.876123 -8.110427 15.139365 -25.165105 -11.311674 5.347373 25.749562 3.958753 42.751879 19.528720 67.611769 12.083150 0.000000 0.000000 0.000000 
-4.722133 48.935692 -1.697514 0.000000 0.000000 0.000000 -176.649975 39.208797 171.029344 -95.705253 -22.219990 15.508517 112.965434 -8.808114 3.553352 -17.336528 22.421807 -17.488846 2.235947 -7.409552 4.016157 0.000000 0.000000 0.000000 -176.195207 41.879479 169.208484 -60.025588 19.799171 -7.961434 101.578956 1.394805 -3.010407 -22.633678 -23.251320 38.913210 -0.620588 5.766558 -36.773639 0.000000 0.000000 0.000000 -178.779109 39.857176 173.964044 7.804328 1.310578 -5.311184 6.272173 0.330806 -3.478144 0.097368 0.156270 -0.003436 0.000000 0.000000 0.000000 9.396733 3.593459 -2.740244 -11.370558 12.504209 12.916103 -13.484972 28.240592 -18.351057 0.000000 0.000000 0.000000 6.301842 2.268897 -3.992560 1.351724 -12.783861 -7.197078 -1.572628 -4.550661 -3.345002 -8.472320 -10.439874 -29.751416 58.406860 -36.656591 18.279009 0.000000 0.000000 0.000000 8.331887 2.007871 -2.820390 -4.900204 -8.123881 15.100587 -25.148512 -11.334789 5.330307 25.746950 4.054967 42.756711 19.491782 67.495622 12.159812 0.000000 0.000000 0.000000 
-4.724080 48.921555 -1.690125 0.000000 0.000000 0.000000 -176.666354 39.195368 171.014823 -95.751404 -22.219543 15.529321 112.967483 -8.816248 3.537811 -17.333024 22.397556 -17.486727 2.263015 -7.400492 4.027702 0.000000 0.000000 0.000000 -176.212201 41.862721 169.190165 -60.015738 19.780566 -7.987207 101.567133 1.398273 -3.013672 -22.630872 -23.260339 38.916704 -0.613160 5.750797 -36.773223 0.000000 0.000000 0.000000 -178.795665 39.840592 173.945575 7.780227 1.321206 -5.330961 6.288013 0.330603 -3.485911 0.097369 0.156537 -0.003527 0.000000 0.000000 0.000000 9.403610 3.592394 -2.746609 -11.425927 12.523679 12.948175 -13.490065 28.047823 -18.336090 0.000000 0.000000 0.000000 6.312781 2.265837 -3.999216 1.336901 -12.827979 -7.223628 -1.540674 -4.519353 -3.332174 -8.536907 -10.418500 -29.665636 58.439338 -36.741906 18.302496 0.000000 0.000000 0.000000 8.340264 2.006771 -2.830272 -4.924502 -8.155814 15.060393 -25.134037 -11.364638 5.315158 25.730392 4.159365 42.767793 19.463295 67.368164 12.223106 0.000000 0.000000 0.000000 
-4.723021 48.905861 -1.682953 0.000000 0.000000 0.000000 -176.678525 39.178208 170.996641 -95.803635 -22.228096 15.543422 112.978453 -8.820621 3.520542 -17.321524 22.375507 -17.481647 2.270811 -7.391795 4.031018 0.000000 0.000000 0.000000 -176.223252 41.846421 169.164566 -59.993814 19.767843 -8.008576 101.553616 1.400509 -3.016561 -22.625700 -23.269333 38.926997 -0.608383 5.741696 -36.773585 0.000000 0.000000 0.000000 -178.806170 39.819354 173.923882 7.748256 1.331820 -5.352613 6.308236 0.329751 -3.491527 0.096254 0.157777 -0.004479 0.000000 0.000000 0.000000 9.418442 3.591020 -2.750594 -11.468357 12.543504 12.977684 -13.484465 27.877750 -18.304369 0.000000 0.000000 0.000000 6.329762 2.262612 -4.004478 1.324357 -12.890525 -7.248450 -1.514218 -4.479454 -3.322586 -8.597209 -10.372410 -29.558275 58.463250 -36.855451 18.338445 0.000000 0.000000 0.000000 8.355352 2.005166 -2.837580 -4.946627 -8.202572 15.018396 -25.122706 -11.395112 5.302078 25.707292 4.264881 42.792972 19.445858 67.220707 12.269897 0.000000 0.000000 0.000000 
-4.719355 48.886902 -1.678463 0.000000 0.000000 0.000000 -176.686079 39.156983 170.973828 -95.871588 -22.250907 15.546445 113.001259 -8.822977 3.503478 -17.290224 22.352820 -17.481132 2.267762 -7.382595 4.024988 0.000000 0.000000 0.000000 -176.229836 41.829489 169.134130 -59.953468 19.761906 -8.025757 101.546055 1.399278 -3.017161 -22.630729 -23.282662 38.933393 -0.597475 5.737755 -36.772191 0.000000 0.000000 0.000000 -178.812221 39.792747 173.902968 7.711192 1.344280 -5.372856 6.334109 0.328961 -3.493399 0.094567 0.159764 -0.005694 0.000000 0.000000 0.000000 9.440395 3.589975 -2.751446 -11.500488 12.561305 13.006308 -13.466117 27.738114 -18.256655 0.000000 0.000000 0.000000 6.353506 2.259800 -4.006708 1.315086 -12.971234 -7.270142 -1.495734 -4.448611 -3.317438 -8.646377 -10.299468 -29.434888 58.489676 -37.010930 18.400369 0.000000 0.000000 0.000000 8.377620 2.004007 -2.840864 -4.964059 -8.261411 14.970906 -25.104683 -11.414520 5.291531 25.679085 4.365544 42.840265 19.442729 67.059077 12.293859 0.000000 0.000000 0.000000 
